<svg width="86" height="78" viewBox="0 0 86 78" fill="none" xmlns="http://www.w3.org/2000/svg">
<path id="Vector" d="M42.75 78C34.8935 78 28.5 72.1673 28.5 65L28.7518 51.7703L14.3355 52C6.3935 52 0 46.1673 0 39C0 31.8327 6.3935 26 14.25 26L28.7518 25.766L28.5 13.078C28.5 5.83267 34.8935 0 42.75 0C50.6065 0 57 5.83267 57 13L57.2613 25.766L71.3355 26C79.1065 26 85.5 31.8327 85.5 39C85.5 46.1673 79.1065 52 71.25 52L57.2613 51.7703L57 65.078C57 72.1673 50.6065 78 42.75 78ZM38 43.3333V65.078C38 67.3877 40.1328 69.3333 42.75 69.3333C45.3672 69.3333 47.5 67.3877 47.5 65V43.3333H71.3355C73.8672 43.3333 76 41.3877 76 39C76 36.6123 73.8672 34.6667 71.25 34.6667H47.5V13C47.5 10.5343 45.3672 8.66667 42.75 8.66667C40.1328 8.66667 38 10.6123 38 13V34.6667H14.25C11.5472 34.6667 9.5 36.6123 9.5 39C9.5 41.3877 11.6327 43.3333 14.25 43.3333H38Z" fill="white"/>
</svg>
